<?xml version="1.0" encoding="iso-8859-1"?>
<!-- Generator: Adobe Illustrator 19.0.0, SVG Export Plug-In . SVG Version: 6.00 Build 0)  -->
<svg version="1.1" id="Capa_1" xmlns="http://www.w3.org/2000/svg" xmlns:xlink="http://www.w3.org/1999/xlink" x="0px" y="0px"
	 viewBox="0 0 512 512" style="enable-background:new 0 0 512 512;" xml:space="preserve">
<g>
	<g>
		<path d="M378.608,290.994C344.16,249.402,300.618,226.496,256,226.496s-88.161,22.906-122.607,64.498
			c-30.964,37.385-49.448,84.501-49.448,126.035c0,20.176,6.168,35.544,18.332,45.679c12.006,10.004,27.857,13.388,45.541,13.387
			c18.817,0,39.711-3.832,60.24-7.598c17.939-3.291,34.883-6.399,47.943-6.399c11.272,0,27.165,2.95,43.988,6.073
			c39.317,7.3,83.881,15.572,109.624-5.832c12.238-10.175,18.443-25.42,18.443-45.31
			C428.057,375.495,409.572,328.379,378.608,290.994z M390.433,439.271c-14.923,12.409-53.762,5.198-84.97-0.595
			c-18.221-3.383-35.431-6.578-49.464-6.578c-15.789,0-34.036,3.348-53.356,6.892c-29.931,5.49-67.181,12.324-81.165,0.671
			c-1.864-1.553-7.536-6.279-7.536-22.633c0-34.246,16.306-75.208,42.553-106.899c28.645-34.586,63.983-53.634,99.503-53.634
			c35.52,0,70.858,19.048,99.503,53.634c26.248,31.691,42.553,72.653,42.553,106.899
			C398.057,432.933,392.319,437.704,390.433,439.271z"/>
	</g>
</g>
<g>
	<g>
		<path d="M382.13,65.146c-12.604-18.583-30.652-29.239-49.517-29.239c-18.866,0-36.913,10.658-49.517,29.239
			c-11.578,17.071-17.955,39.489-17.955,63.125c0,23.636,6.376,46.054,17.955,63.125c12.604,18.582,30.652,29.24,49.517,29.24
			c18.866,0,36.913-10.658,49.517-29.24c11.578-17.071,17.955-39.489,17.955-63.125C400.085,104.635,393.709,82.216,382.13,65.146z
			 M357.303,174.557c-4.073,6.005-12.697,16.08-24.69,16.08c-11.993,0-20.616-10.074-24.69-16.08
			c-8.124-11.978-12.783-28.849-12.783-46.286c0-17.438,4.66-34.308,12.783-46.286c4.073-6.005,12.697-16.08,24.69-16.08
			c11.993,0,20.617,10.074,24.69,16.08c8.124,11.978,12.783,28.849,12.783,46.286C370.085,145.708,365.427,162.579,357.303,174.557z
			"/>
	</g>
</g>
<g>
	<g>
		<path d="M228.905,65.145c-12.604-18.583-30.651-29.24-49.517-29.24s-36.914,10.658-49.517,29.24
			c-11.578,17.071-17.955,39.489-17.955,63.125s6.376,46.054,17.955,63.125c12.604,18.583,30.651,29.241,49.517,29.241
			s36.913-10.658,49.517-29.241c11.578-17.071,17.955-39.488,17.955-63.125C246.859,104.634,240.483,82.215,228.905,65.145z
			 M204.076,174.557c-4.073,6.005-12.697,16.08-24.689,16.08c-11.993,0-20.617-10.075-24.69-16.08
			c-8.124-11.978-12.783-28.849-12.783-46.286c0-17.438,4.66-34.308,12.783-46.286c4.073-6.005,12.697-16.08,24.69-16.08
			s20.616,10.074,24.689,16.08c8.124,11.978,12.783,28.849,12.783,46.286C216.859,145.708,212.2,162.579,204.076,174.557z"/>
	</g>
</g>
<g>
	<g>
		<path d="M509.019,210.133c-5.081-17.284-15.972-29.843-30.665-35.362c-11.824-4.441-25.171-3.688-37.583,2.121
			c-17.105,8.004-31.086,24.532-38.356,45.345c-5.941,17.008-6.682,34.985-2.085,50.622c5.081,17.284,15.972,29.843,30.666,35.362
			c5.085,1.91,10.45,2.859,15.902,2.859c7.227,0,14.607-1.669,21.682-4.98c17.105-8.004,31.086-24.532,38.356-45.344v-0.001
			C512.876,243.748,513.617,225.77,509.019,210.133z M478.614,250.862c-4.556,13.041-13.061,23.533-22.75,28.067
			c-3.563,1.666-8.938,3.229-14.32,1.208c-12.988-4.879-18.04-27.313-10.81-48.007c4.556-13.041,13.061-23.533,22.751-28.068
			c2.362-1.105,5.52-2.164,8.948-2.164c1.744,0,3.558,0.274,5.371,0.955C480.792,207.733,485.844,230.167,478.614,250.862z"/>
	</g>
</g>
<g>
	<g>
		<path d="M109.587,222.235c-7.271-20.813-21.252-37.34-38.356-45.344c-12.413-5.809-25.761-6.561-37.584-2.121
			c-14.694,5.52-25.585,18.079-30.666,35.362c-4.597,15.637-3.856,33.615,2.085,50.622v0.001
			c7.272,20.813,21.252,37.34,38.356,45.344c7.076,3.311,14.455,4.98,21.682,4.98c5.452,0,10.818-0.95,15.902-2.859
			c14.696-5.52,25.586-18.079,30.667-35.362C116.268,257.222,115.527,239.244,109.587,222.235z M70.456,280.137
			c-5.381,2.021-10.757,0.458-14.319-1.208c-9.689-4.534-18.195-15.026-22.75-28.067v0.001c-7.229-20.695-2.178-43.128,10.81-48.008
			c5.38-2.021,10.757-0.458,14.32,1.208c9.69,4.535,18.195,15.027,22.75,28.067C88.496,252.825,83.444,275.258,70.456,280.137z"/>
	</g>
</g>
<g>
</g>
<g>
</g>
<g>
</g>
<g>
</g>
<g>
</g>
<g>
</g>
<g>
</g>
<g>
</g>
<g>
</g>
<g>
</g>
<g>
</g>
<g>
</g>
<g>
</g>
<g>
</g>
<g>
</g>
</svg>
