<svg id="Capa_1" enable-background="new 0 0 512 512" height="512" viewBox="0 0 512 512" width="512" xmlns="http://www.w3.org/2000/svg"><g><path d="m97.984 201.24c0 4.122 3.342 7.463 7.463 7.463s7.463-3.342 7.463-7.463v-4.771c0-2.842-1.177-5.598-3.229-7.563-2.053-1.965-4.852-3.028-7.697-2.898l-38.575 1.678c-.589.03-1.166-.298-1.446-.828l-46.861-88.532c-.259-.489-.197-.937-.1-1.226.097-.29.319-.684.821-.917l29.205-13.55c3.74-1.735 5.364-6.172 3.629-9.911-1.734-3.739-6.174-5.364-9.911-3.629l-29.205 13.55c-4.083 1.895-7.249 5.428-8.685 9.694-1.436 4.266-1.052 8.995 1.053 12.973l46.861 88.532c2.961 5.595 8.946 9.039 15.288 8.758l33.926-1.476z"/><path d="m511.144 92.336c-1.436-4.266-4.602-7.799-8.685-9.694l-144.997-67.273c-4.35-2.019-9.207-2.174-13.675-.438-4.482 1.741-7.973 5.147-9.828 9.591-16.355 39.171-45.423 81.026-77.959 81.026s-61.604-41.856-77.959-81.026c-1.856-4.444-5.346-7.85-9.828-9.591-4.468-1.736-9.324-1.58-13.675.438l-86.144 39.968c-3.739 1.735-5.364 6.172-3.629 9.911s6.173 5.364 9.911 3.629l61.597-28.579c1.417 2.618 4.909 4.2 8.823 2.478s5.127-6.107 4.081-8.465l11.642-5.401c.81-.375 1.53-.242 1.989-.064.384.149 1.084.533 1.457 1.428 23.582 56.482 57.876 90.202 91.734 90.202s68.151-33.72 91.733-90.202c.374-.895 1.073-1.278 1.458-1.428.459-.179 1.178-.311 1.988.064l11.348 5.265c-.737 1.748-.669 6.387 3.53 8.511s8.118-.885 9.037-2.68l121.081 56.178c.502.233.724.627.821.917.098.29.159.737-.099 1.226l-46.862 88.533c-.279.529-.837.854-1.445.828l-38.577-1.679c-2.841-.128-5.644.932-7.696 2.897s-3.229 4.722-3.229 7.564v144.58c-9.477.016-18.883 1.248-27.96 3.669-3.983 1.062-6.351 5.152-5.289 9.134 1.062 3.983 5.152 6.35 9.134 5.289 7.22-1.925 14.685-2.981 22.223-3.145-.179.289-.369.571-.571.844l-91.393 123.697v-30.523c0-31.289 15.501-60.442 41.467-77.984 3.415-2.308 4.314-6.947 2.006-10.363-2.307-3.414-6.946-4.312-10.363-2.006-30.079 20.321-48.037 54.098-48.037 90.353v33.326h-68.611v-33.326c0-60.023-48.783-108.865-108.783-108.965v-105.464c0-4.122-3.342-7.463-7.463-7.463s-7.463 3.342-7.463 7.463v113.775c0 5.843 1.913 11.65 5.385 16.35l91.494 123.834c4.036 5.462 10.499 8.723 17.291 8.723h87.692c6.791 0 13.255-3.261 17.291-8.723l91.494-123.834c3.473-4.701 5.385-10.507 5.385-16.35v-148.237l33.927 1.477c6.314.273 12.325-3.163 15.287-8.758l46.861-88.533c2.105-3.979 2.489-8.707 1.053-12.974zm-395.769 264.504c-.202-.274-.393-.555-.571-.844 50.9 1.107 91.964 42.857 91.964 94.018v30.523z"/><path d="m178.331 222.64v59.34c0 25.511 20.754 46.265 46.265 46.265h62.807c25.511 0 46.265-20.754 46.265-46.265v-59.34c0-6.859-5.58-12.439-12.439-12.439h-130.459c-6.859 0-12.439 5.58-12.439 12.439zm14.927 2.488h125.484v56.852c0 17.28-14.058 31.338-31.338 31.338h-62.807c-17.28 0-31.338-14.058-31.338-31.338v-56.852z"/><path d="m167.242 67.027c-2.19-3.492-6.796-4.55-10.288-2.36-3.493 2.189-4.549 6.795-2.36 10.288 6.089 9.714 12.5 18.689 19.054 26.677 1.476 1.799 3.616 2.729 5.774 2.729 1.666 0 3.342-.555 4.73-1.694 3.187-2.615 3.65-7.317 1.035-10.504-6.154-7.499-12.191-15.956-17.945-25.136z"/><path d="m331.751 104.284c2.159 0 4.301-.932 5.776-2.732 6.55-7.991 12.957-16.968 19.042-26.684 2.188-3.493 1.13-8.099-2.363-10.287-3.492-2.188-8.099-1.13-10.287 2.363-5.751 9.182-11.786 17.641-17.936 25.144-2.613 3.188-2.147 7.891 1.04 10.504 1.389 1.138 3.063 1.692 4.728 1.692z"/><path d="m275.178 146.558c.715 0 1.442-.104 2.161-.321 10.203-3.082 20.427-8.372 30.387-15.721 3.317-2.447 4.021-7.12 1.574-10.437s-7.121-4.021-10.437-1.574c-8.582 6.333-17.276 10.856-25.841 13.443-3.946 1.192-6.178 5.357-4.986 9.303.975 3.226 3.937 5.307 7.142 5.307z"/><path d="m233.874 146.268c.717.215 1.44.318 2.152.318 3.208 0 6.173-2.086 7.145-5.317 1.187-3.947-1.051-8.109-4.999-9.296-8.568-2.575-17.265-7.088-25.851-13.412-3.32-2.445-7.991-1.736-10.436 1.583s-1.736 7.991 1.583 10.436c9.966 7.34 20.196 12.619 30.406 15.688z"/></g></svg>