<?xml version="1.0"?>
<svg xmlns="http://www.w3.org/2000/svg" id="Outline" viewBox="0 0 512 512" width="512" height="512"><path d="M40,248a7.966,7.966,0,0,0,.07,1.058L70.219,475.172A24.074,24.074,0,0,0,94.008,496H432a24.027,24.027,0,0,0,24-24V440.53l31.93-239.472c0-.035,0-.069.008-.1.019-.162.029-.326.039-.491.007-.12.016-.239.018-.359,0-.035,0-.069,0-.1V168a8,8,0,0,0-8-8H320a8,8,0,0,0-8,8v32c0,.036,0,.07,0,.1,0,.12.011.239.018.359.01.165.02.329.039.491,0,.034,0,.068.008.1l14.749,110.615c-16.084-1.222-21.056-5.575-22.512-7.616a5.983,5.983,0,0,1-.861-5.118,7.641,7.641,0,0,0-.6-7.417A7.971,7.971,0,0,0,296,288c-15.917,0-28.185,3.1-38.29,7.706l6.22-46.648A7.966,7.966,0,0,0,264,248a104.111,104.111,0,0,0-56.755-92.635,7.986,7.986,0,0,0,.646-4.68l-8-48A8,8,0,0,0,192,96h-8V64h56a8,8,0,0,0,8-8V24a8,8,0,0,0-8.532-7.982l-120,8a8,8,0,0,0-7.057,5.452l-8,24A8,8,0,0,0,112,64h8V96h-8a8,8,0,0,0-7.891,6.685l-8,48a7.986,7.986,0,0,0,.646,4.68A104.111,104.111,0,0,0,40,248ZM368,480H174.967A6.974,6.974,0,0,1,168,473.033V390.967A6.974,6.974,0,0,1,174.967,384H369.033A6.974,6.974,0,0,1,376,390.967v82.066A6.974,6.974,0,0,1,369.033,480ZM192,352H352v16H192ZM440,472a8.009,8.009,0,0,1-8,8H390.917A22.9,22.9,0,0,0,392,473.033V448h48Zm1-40H392V390.967A22.993,22.993,0,0,0,369.033,368H368V344c0-.224-.015-.444-.033-.664h0c0-.031-.008-.088-.013-.138l0-.027a41.974,41.974,0,0,0-4.673-14.982A29.579,29.579,0,0,0,343.1,312.744L329.137,208H470.863ZM328,176H472v16H328ZM290.918,312.823C297.683,322.894,312.85,328,336,328c6,0,10.133,2.369,13.02,7.457.1.181.2.362.292.543H229.021c3.414-2.616,6.665-5.363,9.888-8.09,13.026-11.023,25.406-21.5,48.606-23.549A21.459,21.459,0,0,0,290.918,312.823ZM125.891,39.625,232,32.551V48H123.1ZM136,64h32V96H136Zm-22.556,80,5.333-32h66.446l5.333,32H113.444ZM144,160h16a88.1,88.1,0,0,1,88,87.48L240.156,306.3c-4.117,3.081-7.91,6.286-11.583,9.394C215.7,326.591,204.579,336,184,336a8,8,0,0,0-8,8v24h-1.033A22.993,22.993,0,0,0,152,390.967v82.066A22.9,22.9,0,0,0,153.083,480H94.008a8.026,8.026,0,0,1-7.93-6.943L56,247.48A88.1,88.1,0,0,1,144,160Z"/><path d="M272,400a32,32,0,1,0,32,32A32.036,32.036,0,0,0,272,400Zm0,48a16,16,0,1,1,16-16A16.019,16.019,0,0,1,272,448Z"/><path d="M400,288c22.8,0,40-10.317,40-24s-17.2-24-40-24-40,10.317-40,24S377.2,288,400,288Zm0-32c15.488,0,24,6.009,24,8s-8.512,8-24,8-24-6.009-24-8S384.512,256,400,256Z"/><path d="M104,280h96a8,8,0,0,0,8-8V224a8,8,0,0,0-8-8H104a8,8,0,0,0-8,8v48A8,8,0,0,0,104,280Zm8-48h80v32H112Z"/></svg>
