<svg id="Layer_3" enable-background="new 0 0 64 64" height="512" viewBox="0 0 64 64" width="512" xmlns="http://www.w3.org/2000/svg"><path d="m19 35c-6.617 0-12 5.383-12 12s5.383 12 12 12 12-5.383 12-12-5.383-12-12-12zm0 22c-5.514 0-10-4.486-10-10s4.486-10 10-10 10 4.486 10 10-4.486 10-10 10z"/><path d="m6 29h14c.552 0 1-.448 1-1v-4c0-.552-.448-1-1-1h-14c-.552 0-1 .448-1 1v4c0 .552.448 1 1 1zm1-4h12v2h-12z"/><path d="m24 23h9v2h-9z"/><path d="m24 27h9v2h-9z"/><path d="m19 39c-4.411 0-8 3.589-8 8s3.589 8 8 8 8-3.589 8-8-3.589-8-8-8zm0 2c2.803 0 5.157 1.935 5.812 4.537-1.307-.795-3.119-.645-4.226.463l-.586.586c-.526.526-1.474.526-2 0l-.586-.586c-1.107-1.108-2.919-1.257-4.226-.463.655-2.602 3.009-4.537 5.812-4.537zm0 12c-2.871 0-5.274-2.028-5.861-4.725l.861-.861c.526-.526 1.474-.526 2 0l.586.586c.645.645 1.502 1 2.414 1s1.77-.355 2.414-1l.586-.586c.526-.526 1.474-.526 2 0l.861.861c-.587 2.697-2.99 4.725-5.861 4.725z"/><path d="m23 11h2v2h-2z"/><path d="m23 15h2v2h-2z"/><path d="m6.172 13h5.657v2h-5.657z" transform="matrix(.707 -.707 .707 .707 -7.264 10.465)"/><path d="m12.172 13h5.657v2h-5.657z" transform="matrix(.707 -.707 .707 .707 -5.506 14.707)"/><path d="m62 1h-30c-.552 0-1 .448-1 1v17h-2v-11c0-.552-.448-1-1-1h-24c-.552 0-1 .448-1 1v11h-1c-.552 0-1 .448-1 1v42c0 .552.448 1 1 1h34c.552 0 1-.448 1-1v-3h18v3c0 .552.448 1 1 1h4c.552 0 1-.448 1-1v-3h1c.552 0 1-.448 1-1v-56c0-.552-.448-1-1-1zm-1 2v2h-28v-2zm-28 4h28v16h-24v-3c0-.552-.448-1-1-1h-3zm-6 12h-6v-10h6zm-22-10h14v10h-14zm30 12v10h-32v-10zm-32 40v-28h32v28zm56 0h-2v-2h2zm-22-4v-32h24v32z"/><path d="m58 29h-4c-.552 0-1 .448-1 1v12c0 .552.448 1 1 1h4c.552 0 1-.448 1-1v-12c0-.552-.448-1-1-1zm-1 12h-2v-10h2z"/></svg>