<svg height="476pt" viewBox="0 0 476.84655 476" width="476pt" xmlns="http://www.w3.org/2000/svg"><path d="m412.847656 128.421875c35.34375 0 64-28.652344 64-64 0-35.34375-28.65625-64-64-64-35.347656 0-64 28.65625-64 64 .039063 35.332031 28.667969 63.960937 64 64zm0-112c26.507813 0 48 21.492187 48 48 0 26.511719-21.492187 48-48 48-26.511718 0-48-21.488281-48-48 .023438-26.496094 21.5-47.972656 48-48zm0 0"/><path d="m139.703125 187.734375c9.359375.015625 18.34375-3.695313 24.960937-10.320313l72.183594-72.191406 48.183594 48.183594c13.78125 13.78125 36.121094 13.78125 49.902344 0l.050781-.046875c13.742187-13.789063 13.742187-36.097656 0-49.886719l-69.859375-69.839844c-15.617188-15.617187-40.9375-15.617187-56.558594 0l-93.855468 93.847657c-10.085938 10.101562-13.09375 25.285156-7.625 38.472656 5.472656 13.183594 18.339843 21.78125 32.617187 21.78125zm-13.679687-48.910156 93.855468-93.882813c9.371094-9.367187 24.5625-9.367187 33.9375 0l69.855469 69.882813c7.507813 7.535156 7.507813 19.726562 0 27.261719l-.050781.050781c-7.539063 7.515625-19.738282 7.515625-27.277344 0l-53.839844-53.847657c-3.125-3.125-8.1875-3.125-11.3125 0l-77.847656 77.8125c-7.644531 7.316407-19.703125 7.296876-27.320312-.046874-7.488282-7.53125-7.488282-19.699219 0-27.230469zm0 0"/><path d="m444.847656 208.421875h-80v-40c0-3.234375-1.949218-6.148437-4.941406-7.386719-2.988281-1.238281-6.429688-.554687-8.714844 1.730469l-48 48c-1.5 1.5-2.34375 3.535156-2.34375 5.65625v32c0 13.257813 10.742188 24 24 24h120c17.671875 0 32-14.324219 32-32 0-17.671875-14.328125-32-32-32zm0 48h-120c-4.417968 0-8-3.582031-8-8v-28.6875l32-32v28.6875c0 4.417969 3.582032 8 8 8h88c8.835938 0 16 7.164063 16 16 0 8.839844-7.164062 16-16 16zm0 0"/><path d="m202.671875 313.222656-38.625-38.625c-3.175781-3-8.140625-3-11.3125 0l-142.398437 142.402344c-13.78125 13.777344-13.78125 36.117188 0 49.894531v.039063c13.785156 13.761718 36.109374 13.761718 49.894531 0l142.398437-142.398438c3.136719-3.113281 3.152344-8.175781.042969-11.3125zm-153.730469 142.402344c-7.53125 7.515625-19.730468 7.515625-27.261718 0h-.03125c-7.535157-7.527344-7.535157-19.738281 0-27.265625l136.734374-136.792969 27.3125 27.320313zm0 0"/><path d="m244.300781 229.925781c-8.875-9.140625-21.992187-12.792969-34.316406-9.558593-12.328125 3.238281-21.953125 12.863281-25.195313 25.191406-3.238281 12.324218.410157 25.441406 9.554688 34.320312l62.503906 62.488282-75.792968 40.390624c-16.855469 9.628907-22.738282 31.085938-13.144532 47.960938l1.136719 2.097656c6.34375 10.972656 18.058594 17.730469 30.734375 17.726563 6.058594.007812 12.011719-1.574219 17.265625-4.589844l98.671875-53.066406 12.800781-7.351563c10.808594-6.191406 18.117188-17.070312 19.765625-29.421875 1.644532-12.347656-2.558594-24.761719-11.367187-33.570312zm88.121094 124.097657c-.972656 7.398437-5.359375 13.914062-11.847656 17.601562l-111.304688 60.335938c-9.183593 5.261718-20.894531 2.164062-26.269531-6.953126l-1.144531-2.097656c-5.238281-9.140625-2.160157-20.792968 6.910156-26.152344l85.128906-45.351562c2.238281-1.191406 3.777344-3.375 4.148438-5.882812.371093-2.507813-.464844-5.042969-2.261719-6.835938l-70.132812-70.121094c-7.550782-7.550781-7.550782-19.792968 0-27.34375 7.550781-7.550781 19.792968-7.550781 27.34375 0l92.65625 92.632813c5.304687 5.28125 7.8125 12.753906 6.773437 20.167969zm0 0"/></svg>