<svg id="Capa_1" enable-background="new 0 0 512 512" height="512" viewBox="0 0 512 512" width="512" xmlns="http://www.w3.org/2000/svg"><g><path d="m482.284 184.663c-13.761-16.711-31.476-29.701-51.268-37.848 4.484-4.618 7.253-10.91 7.253-17.84 0-9.853-5.592-18.42-13.765-22.709l34.109-39.432c1.999-2.311 2.396-5.604 1.004-8.324l-27.298-53.329c-1.283-2.506-3.861-4.083-6.676-4.083h-88.345c-2.815 0-5.394 1.577-6.676 4.083l-27.296 53.329c-1.392 2.72-.995 6.013 1.004 8.324l34.109 39.432c-8.174 4.289-13.765 12.856-13.765 22.709 0 6.924 2.765 13.212 7.242 17.829-12.665 5.195-24.466 12.377-34.987 21.33-.31-.395-.63-.781-.943-1.172-1.941-10.347-12.458-62.619-35.78-114.109-6.186-13.656-19.899-22.48-34.935-22.48h-118.15c-15.037 0-28.749 8.824-34.935 22.48-23.322 51.488-33.839 103.759-35.78 114.108-22.767 28.443-36.406 64.496-36.406 103.679 0 39.184 13.639 75.237 36.408 103.681 1.274 6.773 6.309 31.89 16.361 63.223 1.021 3.183 3.968 5.211 7.14 5.211.759 0 1.532-.116 2.293-.36 3.944-1.266 6.116-5.489 4.851-9.433-4.555-14.198-8.073-27.206-10.648-37.669 29.302 25.839 67.744 41.542 109.791 41.542 42.037 0 80.471-15.696 109.77-41.524-5.392 21.858-14.904 54.867-29.427 86.928-3.759 8.3-12.107 13.664-21.268 13.664h-118.151c-9.162 0-17.51-5.363-21.268-13.663-3.138-6.932-6.158-14.146-8.977-21.44-1.493-3.864-5.836-5.784-9.699-4.293-3.864 1.493-5.786 5.836-4.292 9.699 2.92 7.557 6.05 15.033 9.304 22.221 6.182 13.654 19.894 22.476 34.932 22.476h118.15c15.038 0 28.75-8.822 34.932-22.475 23.325-51.492 33.842-103.76 35.782-114.109 1.295-1.618 2.563-3.258 3.799-4.925 23.12 18.58 51.812 28.729 81.688 28.729 71.974 0 130.53-58.556 130.53-130.53-.001-30.206-10.555-59.657-29.717-82.93zm-131.979-45.056c-5.863 0-10.633-4.77-10.633-10.633s4.77-10.633 10.633-10.633h62.331c5.863 0 10.633 4.77 10.633 10.633s-4.77 10.633-10.633 10.633zm2.549-70.175 9.403 33.91h-6.515l-29.332-33.91zm83.677 0-29.332 33.91h-6.515l9.403-33.91zm-51.413 33.91h-7.296l-9.403-33.91h26.101zm55.559-48.91h-29.922l-6.29-38.333h16.591zm-51.413-38.334 6.29 38.333h-28.169l6.29-38.333zm-47.38 0h16.591l-6.29 38.333h-29.922zm-256.034 42.944c3.761-8.304 12.11-13.669 21.271-13.669h118.147c9.161 0 17.51 5.366 21.271 13.669 14.521 32.059 24.033 65.068 29.425 86.927-29.299-25.828-67.734-41.524-109.77-41.524-42.039 0-80.476 15.698-109.776 41.529 5.387-21.844 14.895-54.837 29.432-86.932zm80.345 362.792c-83.369 0-151.195-67.825-151.195-151.194s67.826-151.195 151.195-151.195 151.195 67.826 151.195 151.195-67.826 151.194-151.195 151.194zm215.275-38.712c-26.863 0-52.644-9.271-73.27-26.217 3.92-6.429 7.407-13.149 10.44-20.11 17.103 15.539 39.418 24.267 62.83 24.267 51.55 0 93.49-41.931 93.49-93.47 0-21.686-7.589-42.812-21.368-59.487-2.638-3.193-7.366-3.644-10.559-1.004-3.193 2.639-3.643 7.366-1.004 10.559 11.563 13.993 17.932 31.727 17.932 49.933 0 43.269-35.21 78.47-78.49 78.47-21.679 0-42.241-8.911-57.044-24.582 5.163-16.032 7.964-33.114 7.964-50.84 0-19.384-3.347-37.998-9.474-55.309 14.9-16.718 36.013-26.229 58.555-26.229 14.312 0 28.307 3.883 40.473 11.23 3.545 2.142 8.156 1.002 10.297-2.543 2.142-3.545 1.003-8.156-2.543-10.297-14.505-8.76-31.182-13.39-48.227-13.39-24.436 0-47.458 9.386-64.778 26.081-3.227-6.865-6.906-13.476-11.006-19.791 14.772-12.851 32.47-21.718 51.583-25.785h48.409c25.363 5.41 48.436 19.443 65.026 39.591 16.955 20.593 26.294 46.658 26.294 73.393 0 63.703-51.827 115.53-115.53 115.53z"/><path d="m166.195 140.415c-71.806 0-130.225 58.419-130.225 130.225s58.418 130.225 130.225 130.225 130.225-58.419 130.225-130.225-58.419-130.225-130.225-130.225zm7.5 245.199v-36.594c0-4.142-3.358-7.5-7.5-7.5s-7.5 3.358-7.5 7.5v36.594c-57.572-3.718-103.756-49.902-107.474-107.474h36.594c4.142 0 7.5-3.358 7.5-7.5s-3.358-7.5-7.5-7.5h-36.594c3.718-57.572 49.902-103.757 107.474-107.475v36.594c0 4.142 3.358 7.5 7.5 7.5s7.5-3.358 7.5-7.5v-36.594c57.572 3.718 103.757 49.903 107.474 107.475h-36.594c-4.142 0-7.5 3.358-7.5 7.5s3.358 7.5 7.5 7.5h36.594c-3.717 57.571-49.903 103.756-107.474 107.474z"/><path d="m186.318 239.91-20.124 20.124-49.786-49.787c-2.928-2.929-7.677-2.929-10.606 0s-2.929 7.678 0 10.606l55.089 55.09c1.406 1.407 3.314 2.197 5.303 2.197s3.897-.79 5.303-2.197l25.427-25.427c2.929-2.929 2.929-7.678 0-10.606-2.928-2.929-7.677-2.929-10.606 0z"/></g></svg>