<?xml version="1.0"?>
<svg xmlns="http://www.w3.org/2000/svg" xmlns:xlink="http://www.w3.org/1999/xlink" xmlns:svgjs="http://svgjs.com/svgjs" version="1.1" width="512" height="512" x="0" y="0" viewBox="0 0 368 368" style="enable-background:new 0 0 512 512" xml:space="preserve" class=""><g>
<path xmlns="http://www.w3.org/2000/svg" style="" d="M152,24v112c0,8.8-7.2,16-16,16H24c-8.8,0-16-7.2-16-16V24c0-8.8,7.2-16,16-16h112  C144.8,8,152,15.2,152,24z" fill="#efefef" data-original="#cce4ff" class=""/>
<g xmlns="http://www.w3.org/2000/svg">
	<path style="" d="M136,0H24C10.768,0,0,10.768,0,24v112c0,13.232,10.768,24,24,24h112c13.232,0,24-10.768,24-24V24   C160,10.768,149.232,0,136,0z M144,136c0,4.408-3.592,8-8,8H24c-4.408,0-8-3.592-8-8V24c0-4.408,3.592-8,8-8h112   c4.408,0,8,3.592,8,8V136z" fill="#000000" data-original="#007aff" class=""/>
	<path style="" d="M344,0H232c-13.232,0-24,10.768-24,24v112c0,13.232,10.768,24,24,24h112c13.232,0,24-10.768,24-24   V24C368,10.768,357.232,0,344,0z M352,136c0,4.408-3.584,8-8,8H232c-4.416,0-8-3.592-8-8V24c0-4.408,3.584-8,8-8h112   c4.416,0,8,3.592,8,8V136z" fill="#000000" data-original="#007aff" class=""/>
	<path style="" d="M136,208H24c-13.232,0-24,10.768-24,24v112c0,13.232,10.768,24,24,24h112c13.232,0,24-10.768,24-24   V232C160,218.768,149.232,208,136,208z M144,344c0,4.408-3.592,8-8,8H24c-4.408,0-8-3.592-8-8V232c0-4.408,3.592-8,8-8h112   c4.408,0,8,3.592,8,8V344z" fill="#000000" data-original="#007aff" class=""/>
	<path style="" d="M344,208H232c-13.232,0-24,10.768-24,24v112c0,13.232,10.768,24,24,24h112c13.232,0,24-10.768,24-24   V232C368,218.768,357.232,208,344,208z M352,344c0,4.408-3.584,8-8,8H232c-4.416,0-8-3.592-8-8V232c0-4.408,3.584-8,8-8h112   c4.416,0,8,3.592,8,8V344z" fill="#000000" data-original="#007aff" class=""/>
</g>
<g xmlns="http://www.w3.org/2000/svg">
</g>
<g xmlns="http://www.w3.org/2000/svg">
</g>
<g xmlns="http://www.w3.org/2000/svg">
</g>
<g xmlns="http://www.w3.org/2000/svg">
</g>
<g xmlns="http://www.w3.org/2000/svg">
</g>
<g xmlns="http://www.w3.org/2000/svg">
</g>
<g xmlns="http://www.w3.org/2000/svg">
</g>
<g xmlns="http://www.w3.org/2000/svg">
</g>
<g xmlns="http://www.w3.org/2000/svg">
</g>
<g xmlns="http://www.w3.org/2000/svg">
</g>
<g xmlns="http://www.w3.org/2000/svg">
</g>
<g xmlns="http://www.w3.org/2000/svg">
</g>
<g xmlns="http://www.w3.org/2000/svg">
</g>
<g xmlns="http://www.w3.org/2000/svg">
</g>
<g xmlns="http://www.w3.org/2000/svg">
</g>
</g></svg>
